<svg width="293" height="292" viewBox="0 0 293 292" fill="none" xmlns="http://www.w3.org/2000/svg">
<path d="M4.87621 146.672C2.87889 144.324 1.88023 143.149 1.3905 141.66C0.900772 140.171 1.00034 138.738 1.19946 135.874C2.73596 113.773 9.28665 92.2631 20.4082 73C33.2224 50.8052 51.6531 32.3745 73.8479 19.5603C96.0428 6.74612 121.22 0 146.848 0C169.244 0 191.294 5.15155 211.312 15.0022C213.419 16.0391 214.473 16.5576 214.373 17.2734C214.274 17.9892 213.106 18.203 210.771 18.6306L199.785 20.6427C195.488 21.4297 193.339 21.8232 192.415 23.4246C191.49 25.026 192.224 27.0835 193.691 31.1983L197.618 42.2133C198.344 44.2496 198.707 45.2677 198.212 45.7159C197.717 46.164 196.725 45.695 194.742 44.7571C179.804 37.6901 163.449 34 146.848 34C127.188 34 107.874 39.1751 90.8479 49.0051C73.8218 58.8352 59.6831 72.9738 49.8531 90C41.6208 104.259 36.6532 120.122 35.2559 136.449C35.0034 139.4 34.8771 140.875 34.3965 142.027C33.916 143.18 33.0495 144.199 31.3167 146.236L24.0053 154.834C21.1753 158.162 19.7602 159.826 17.9111 159.826C16.0619 159.826 14.6469 158.162 11.8168 154.834L4.87621 146.672Z" fill="white"/>
<path d="M218.416 268.615C217.381 271.519 216.863 272.971 215.818 274.14C214.773 275.309 213.483 275.939 210.903 277.198C190.994 286.918 169.091 292 146.848 292C121.22 292 96.0428 285.254 73.848 272.44C51.6532 259.626 33.2225 241.195 20.4083 219C9.21051 199.605 2.64647 177.932 1.16867 155.672C1.01311 153.328 0.935333 152.157 1.60497 151.885C2.27461 151.613 3.04346 152.517 4.58116 154.325L11.8169 162.834C14.6469 166.162 16.062 167.826 17.9111 167.826C19.7603 167.826 21.1753 166.162 24.0054 162.834L31.5812 153.925C32.9817 152.279 33.6819 151.455 34.3176 151.66C34.9533 151.865 35.0428 152.958 35.2219 155.144C36.571 171.614 41.5525 187.623 49.8532 202C59.6832 219.026 73.8218 233.165 90.848 242.995C107.874 252.825 127.188 258 146.848 258C163.313 258 179.534 254.37 194.373 247.417C197.054 246.16 198.395 245.532 199.633 245.372C200.872 245.212 202.187 245.453 204.818 245.935L215.92 247.968C220.217 248.755 222.365 249.148 223.29 250.75C224.214 252.351 223.481 254.409 222.014 258.524L218.416 268.615Z" fill="white"/>
<path d="M217.252 22.713C220.285 22.1576 221.801 21.8799 223.336 22.2005C224.871 22.5211 226.061 23.3234 228.442 24.9281C246.814 37.3094 262.167 53.7372 273.288 73.0003C286.103 95.1951 292.849 120.372 292.849 146C292.849 171.629 286.103 196.806 273.288 219C262.091 238.395 246.604 254.916 228.064 267.327C226.113 268.633 225.137 269.286 224.567 268.842C223.996 268.398 224.395 267.28 225.192 265.044L228.943 254.524C230.41 250.409 231.143 248.352 230.219 246.75C229.294 245.149 227.145 244.755 222.848 243.968L211.346 241.862C209.219 241.472 208.156 241.277 208.015 240.625C207.875 239.972 208.777 239.348 210.58 238.1C224.17 228.696 235.543 216.378 243.843 202C253.674 184.974 258.849 165.66 258.849 146C258.849 126.34 253.674 107.026 243.844 90.0003C235.611 75.7415 224.357 63.5078 210.916 54.134C208.487 52.4402 207.273 51.5933 206.515 50.6009C205.757 49.6084 205.308 48.3486 204.41 45.8291L200.62 35.1986C199.153 31.0838 198.419 29.0264 199.344 27.4249C200.268 25.8235 202.417 25.43 206.714 24.643L217.252 22.713Z" fill="white"/>
</svg>
