<svg width="19" height="23" viewBox="0 0 19 23" fill="none" xmlns="http://www.w3.org/2000/svg">
<path d="M11.9714 18.4144L10.3192 16.804L12.6024 16.4723L12.8625 16.4345L12.9789 16.1988L14 14.1298L15.0211 16.1988L15.1375 16.4345L15.3976 16.4723L17.6808 16.804L16.0286 18.4144L15.8404 18.5979L15.8848 18.857L16.2748 21.1311L14.2327 20.0574L14 19.9351L13.7673 20.0574L11.7252 21.1311L12.1152 18.857L12.1596 18.5979L11.9714 18.4144ZM0.516402 20.5C0.762816 16.7562 3.75624 13.7628 7.5 13.5164V20.5H0.516402ZM8 11.5C4.96114 11.5 2.5 9.03886 2.5 6C2.5 2.96114 4.96114 0.5 8 0.5C11.0389 0.5 13.5 2.96114 13.5 6C13.5 9.03886 11.0389 11.5 8 11.5Z" stroke="white"/>
</svg>
