<svg width="20" height="20" viewBox="0 0 20 20" fill="none" xmlns="http://www.w3.org/2000/svg">
<path d="M0.13127 11.6313C-0.0507998 10.5354 -0.0447897 9.43449 0.13216 8.36999C1.23337 8.39679 2.22374 7.86847 2.60865 6.9392C2.99357 6.00993 2.66685 4.93606 1.86926 4.1763C2.49685 3.29847 3.27105 2.51577 4.17471 1.8696C4.9345 2.66765 6.0087 2.99465 6.93822 2.60963C7.86774 2.22461 8.3961 1.23381 8.369 0.132247C9.4649 -0.0498232 10.5658 -0.0438132 11.6303 0.133137C11.6036 1.23434 12.1319 2.22471 13.0612 2.60963C13.9904 2.99455 15.0643 2.66782 15.8241 1.87024C16.7019 2.49783 17.4846 3.27202 18.1308 4.17569C17.3327 4.93548 17.0057 6.00968 17.3907 6.9392C17.7757 7.86872 18.7665 8.39709 19.8681 8.36999C20.0502 9.46589 20.0442 10.5668 19.8672 11.6313C18.766 11.6046 17.7756 12.1329 17.3907 13.0621C17.0058 13.9914 17.3325 15.0653 18.1301 15.825C17.5025 16.7029 16.7283 17.4856 15.8247 18.1317C15.0649 17.3337 13.9907 17.0067 13.0612 17.3917C12.1316 17.7767 11.6033 18.7675 11.6303 19.8691C10.5344 20.0512 9.4335 20.0452 8.3691 19.8682C8.3958 18.767 7.86749 17.7766 6.93822 17.3917C6.00895 17.0068 4.93508 17.3335 4.17532 18.1311C3.29749 17.5035 2.51479 16.7293 1.86862 15.8257C2.66667 15.0659 2.99367 13.9917 2.60865 13.0621C2.22363 12.1326 1.23284 11.6043 0.13127 11.6313ZM9.9997 13.0007C11.6565 13.0007 12.9997 11.6575 12.9997 10.0007C12.9997 8.34379 11.6565 7.00067 9.9997 7.00067C8.3428 7.00067 6.99969 8.34379 6.99969 10.0007C6.99969 11.6575 8.3428 13.0007 9.9997 13.0007Z" fill="white"/>
</svg>
