<svg width="21" height="17" viewBox="0 0 21 17" fill="none" xmlns="http://www.w3.org/2000/svg">
<path d="M0 14H7V16H0V14ZM0 7H9V9H0V7ZM0 0H20V2H0V0ZM18.674 9.0251L19.8301 8.634L20.8301 10.366L19.914 11.1711C19.9704 11.4386 20 11.7158 20 12C20 12.2842 19.9704 12.5614 19.914 12.8289L20.8301 13.634L19.8301 15.366L18.674 14.9749C18.2635 15.3441 17.7763 15.6295 17.2391 15.8044L17 17H15L14.7609 15.8044C14.2237 15.6295 13.7365 15.3441 13.326 14.9749L12.1699 15.366L11.1699 13.634L12.086 12.8289C12.0296 12.5614 12 12.2842 12 12C12 11.7158 12.0296 11.4386 12.086 11.1711L11.1699 10.366L12.1699 8.634L13.326 9.0251C13.7365 8.6559 14.2237 8.3705 14.7609 8.1956L15 7H17L17.2391 8.1956C17.7763 8.3705 18.2635 8.6559 18.674 9.0251ZM16 13C16.5523 13 17 12.5523 17 12C17 11.4477 16.5523 11 16 11C15.4477 11 15 11.4477 15 12C15 12.5523 15.4477 13 16 13Z" fill="white"/>
</svg>
