<svg width="18" height="20" viewBox="0 0 18 20" fill="none" xmlns="http://www.w3.org/2000/svg">
<path d="M13 0L18 5V19.0082C18 19.556 17.5551 20 17.0066 20H0.9934C0.44476 20 0 19.5447 0 19.0082V0.9918C0 0.44405 0.44495 0 0.9934 0H13ZM10.529 12.4464L12.7395 14.6569L14.1537 13.2426L11.9432 11.0322C12.8492 9.4983 12.6432 7.48951 11.3252 6.17157C9.7631 4.60948 7.2305 4.60948 5.66839 6.17157C4.1063 7.73367 4.1063 10.2663 5.66839 11.8284C6.98633 13.1464 8.9951 13.3524 10.529 12.4464ZM9.911 10.4142C9.13 11.1953 7.8637 11.1953 7.0826 10.4142C6.30156 9.6332 6.30156 8.3668 7.0826 7.58579C7.8637 6.80474 9.13 6.80474 9.911 7.58579C10.6921 8.3668 10.6921 9.6332 9.911 10.4142Z" fill="white"/>
</svg>
