<svg width="18" height="19" viewBox="0 0 18 19" fill="none" xmlns="http://www.w3.org/2000/svg">
<path d="M17.5 8.76868V9.5C17.5 10.4512 16.7159 11.447 15.1404 12.2348C13.5948 13.0076 11.4245 13.5 9 13.5C6.57551 13.5 4.40527 13.0076 2.85965 12.2348C1.28412 11.447 0.5 10.4512 0.5 9.5V8.76867C1.00151 9.29655 1.66206 9.75401 2.41243 10.1292C4.12417 10.9851 6.45393 11.5 9 11.5C11.5461 11.5 13.8758 10.9851 15.5876 10.1292C16.338 9.75402 16.9985 9.29656 17.5 8.76868ZM15.5876 15.1292C16.338 14.754 16.9985 14.2966 17.5 13.7687V14.5C17.5 15.4512 16.7159 16.447 15.1404 17.2348C13.5948 18.0076 11.4245 18.5 9 18.5C6.57551 18.5 4.40527 18.0076 2.85965 17.2348C1.28412 16.447 0.5 15.4512 0.5 14.5V13.7687C1.00151 14.2966 1.66206 14.754 2.41243 15.1292C4.12417 15.9851 6.45393 16.5 9 16.5C11.5461 16.5 13.8758 15.9851 15.5876 15.1292ZM9 8.5C6.57551 8.5 4.40527 8.00758 2.85965 7.23477C1.28412 6.447 0.5 5.45123 0.5 4.5C0.5 3.54877 1.28412 2.553 2.85965 1.76523C4.40527 0.992423 6.57551 0.5 9 0.5C11.4245 0.5 13.5948 0.992423 15.1404 1.76523C16.7159 2.553 17.5 3.54877 17.5 4.5C17.5 5.45123 16.7159 6.447 15.1404 7.23477C13.5948 8.00758 11.4245 8.5 9 8.5Z" stroke="white"/>
</svg>
