<svg width="31" height="30" viewBox="0 0 31 30" fill="none" xmlns="http://www.w3.org/2000/svg">
<path d="M19.25 17H14.9C14.1268 17 13.5 16.3732 13.5 15.6V14.7C13.5 13.7611 14.2611 13 15.2 13C16.7464 13 18 11.7464 18 10.2V10.125C18 9.64175 18.3918 9.25 18.875 9.25H19.25C21.0449 9.25 22.5 7.79493 22.5 6V2.8727C26.6859 5.29418 29.5 9.81937 29.5 15C29.5 19.1864 27.6625 22.9436 24.75 25.5092V22.5C24.75 19.4624 22.2876 17 19.25 17ZM20.5 1.91897V6C20.5 6.69036 19.9404 7.25 19.25 7.25H18.875C17.2872 7.25 16 8.53718 16 10.125V10.2C16 10.6418 15.6418 11 15.2 11C13.1565 11 11.5 12.6565 11.5 14.7V15.6C11.5 17.4778 13.0222 19 14.9 19H19.25C21.183 19 22.75 20.567 22.75 22.5V26.9789C20.6353 28.2616 18.1539 29 15.5 29C14.8205 29 14.1528 28.9517 13.5 28.8584V24.7708C13.5 23.0927 13.0033 21.4521 12.0724 20.0559L3.6887 7.48028C6.17592 3.58203 10.537 1 15.5 1C17.2632 1 18.9483 1.32548 20.5 1.91897ZM11.5 24.7708V28.4205C5.71693 26.6997 1.5 21.3413 1.5 15C1.5 13.0427 1.90112 11.1809 2.62535 9.4908L10.4083 21.1653C11.1202 22.233 11.5 23.4876 11.5 24.7708Z" stroke="#F38701" stroke-width="2"/>
</svg>
