<svg width="55" height="54" viewBox="0 0 55 54" fill="none" xmlns="http://www.w3.org/2000/svg">
<path d="M43.9648 30.375H10.2148C9.28286 30.375 8.52734 31.1305 8.52734 32.0625V42.1875C8.52734 43.1195 9.28286 43.875 10.2148 43.875H43.9648C44.8968 43.875 45.6523 43.1195 45.6523 42.1875V32.0625C45.6523 31.1305 44.8968 30.375 43.9648 30.375Z" stroke="#3C493A" stroke-width="2" stroke-linecap="round" stroke-linejoin="round"/>
<path d="M43.9648 10.125H10.2148C9.28286 10.125 8.52734 10.8805 8.52734 11.8125V21.9375C8.52734 22.8695 9.28286 23.625 10.2148 23.625H43.9648C44.8968 23.625 45.6523 22.8695 45.6523 21.9375V11.8125C45.6523 10.8805 44.8968 10.125 43.9648 10.125Z" stroke="#3C493A" stroke-width="2" stroke-linecap="round" stroke-linejoin="round"/>
<path d="M38.0586 18.9844C39.2236 18.9844 40.168 18.04 40.168 16.875C40.168 15.71 39.2236 14.7656 38.0586 14.7656C36.8936 14.7656 35.9492 15.71 35.9492 16.875C35.9492 18.04 36.8936 18.9844 38.0586 18.9844Z" fill="#3C493A"/>
<path d="M38.0586 39.2344C39.2236 39.2344 40.168 38.29 40.168 37.125C40.168 35.96 39.2236 35.0156 38.0586 35.0156C36.8936 35.0156 35.9492 35.96 35.9492 37.125C35.9492 38.29 36.8936 39.2344 38.0586 39.2344Z" fill="#3C493A"/>
</svg>
