<svg width="54" height="54" viewBox="0 0 54 54" fill="none" xmlns="http://www.w3.org/2000/svg">
<path fill-rule="evenodd" clip-rule="evenodd" d="M4.5 36.9373C4.5 40.2785 6.94444 43.117 10.2487 43.6126L41.7487 48.3376C45.8298 48.9498 49.5 45.789 49.5 41.6623V12.3383C49.5 8.21156 45.8298 5.05082 41.7487 5.66298L10.2487 10.388C6.94444 10.8836 4.5 13.7221 4.5 17.0633V36.9373ZM22.5 13.1006L10.9162 14.8382C9.81481 15.0034 9 15.9496 9 17.0633V24.7504H22.5V13.1006ZM27 12.4256V24.7504H45V12.3383C45 10.9627 43.7766 9.90914 42.4162 10.1132L27 12.4256ZM22.5 29.2504H9V36.9373C9 38.051 9.81481 38.9972 10.9162 39.1624L22.5 40.8999V29.2504ZM27 41.5749V29.2504H45V41.6623C45 43.0378 43.7766 44.0914 42.4162 43.8874L27 41.5749Z" fill="white"/>
</svg>
