<svg width="54" height="54" viewBox="0 0 54 54" fill="none" xmlns="http://www.w3.org/2000/svg">
<path d="M32.0625 23.625H40.5" stroke="#3C493A" stroke-width="2" stroke-linecap="round" stroke-linejoin="round"/>
<path d="M32.0625 30.375H40.5" stroke="#3C493A" stroke-width="2" stroke-linecap="round" stroke-linejoin="round"/>
<path d="M19.4277 30.375C22.2237 30.375 24.4902 28.1084 24.4902 25.3125C24.4902 22.5166 22.2237 20.25 19.4277 20.25C16.6318 20.25 14.3652 22.5166 14.3652 25.3125C14.3652 28.1084 16.6318 30.375 19.4277 30.375Z" stroke="#3C493A" stroke-width="2" stroke-linecap="round" stroke-linejoin="round"/>
<path d="M12.8896 35.4374C13.2642 33.9884 14.1095 32.705 15.2927 31.7886C16.476 30.8723 17.9302 30.3751 19.4267 30.375C20.9233 30.3749 22.3775 30.8721 23.5608 31.7884C24.7442 32.7046 25.5895 33.988 25.9642 35.4369" stroke="#3C493A" stroke-width="2" stroke-linecap="round" stroke-linejoin="round"/>
<path d="M45.5625 10.125H8.4375C7.50552 10.125 6.75 10.8805 6.75 11.8125V42.1875C6.75 43.1195 7.50552 43.875 8.4375 43.875H45.5625C46.4945 43.875 47.25 43.1195 47.25 42.1875V11.8125C47.25 10.8805 46.4945 10.125 45.5625 10.125Z" stroke="#3C493A" stroke-width="2" stroke-linecap="round" stroke-linejoin="round"/>
</svg>
