<svg width="102" height="92" viewBox="0 0 102 92" fill="none" xmlns="http://www.w3.org/2000/svg">
<path d="M6.99879 64.6017H14.296V84.819C14.296 89.6989 12.0917 91.9999 7.1503 91.9999C2.05939 91.9999 0.0065918 89.7009 0.0065918 84.818V49.5434C0.0065918 44.6634 2.05939 42.3624 7.1503 42.3624C12.0917 42.3624 14.296 44.7366 14.296 49.5444V58.6059H8.82284V49.2654C8.82284 47.6618 8.29107 47.0337 7.1503 47.0337C5.93426 47.0337 5.4025 47.6618 5.4025 49.3347V85.0979C5.4025 86.7015 5.93426 87.3287 7.1503 87.3287C8.29107 87.3287 8.82284 86.7015 8.82284 85.0979V69.3432H6.99879V64.6017ZM25.4681 71.8519H24.4798V91.5815H19.1601V42.7819H26.8346C31.6235 42.7819 33.295 44.3845 33.295 49.3347V65.5079C33.295 68.7852 32.2325 70.5273 30.4827 71.294C31.9851 78.0663 33.5309 84.8289 35.1201 91.5815H29.6479C28.2814 84.9545 26.8346 78.5481 25.4681 71.8519ZM24.4798 47.5916V67.2509H26.4563C27.4436 67.2509 28.0516 66.7632 28.0516 65.4386V49.5434C28.0516 48.0101 27.5199 47.5916 26.3801 47.5916H24.4798ZM43.558 86.7747H49.7145V91.5844H38.0859V42.7809H49.7145V47.5916H43.558V64.6017H48.8787V69.3422H43.558V86.7747ZM59.1387 86.7747H65.2942V91.5844H53.6656V42.7809H65.2942V47.5916H59.1387V64.6017H64.4594V69.3422H59.1387V86.7747ZM80.4193 42.7809H85.5112V91.5805H79.5836L73.5786 56.5849H73.4261L73.8817 69.9704L74.3382 91.5825H69.2502V42.7829H75.1789L81.2591 77.9882H81.4116L80.8075 64.7422L80.4193 42.7819V42.7809ZM95.8485 86.7747H102.005V91.5844H90.3764V42.7809H102.005V47.5916H95.8485V64.6017H101.165V69.3422H95.8455L95.8485 86.7747ZM101.819 37.3816L94.1542 17.8529C94.0589 17.6145 93.8983 17.4077 93.6907 17.2563L77.6288 5.40121C77.3563 5.20304 77.027 5.09823 76.69 5.10245C76.3528 5.10381 76.025 5.21455 75.7562 5.41802L68.968 10.6244L56.37 0.40353C56.0811 0.173094 55.7195 0.0528223 55.35 0.064218C54.9816 0.0714921 54.6279 0.21008 54.3528 0.454971L45.1682 8.79433L36.2381 11.9995C35.9877 12.0884 35.7657 12.2428 35.5954 12.4466L30.2371 18.9855L22.1299 12.6445C21.8498 12.4284 21.5044 12.3139 21.1505 12.32C20.7921 12.3249 20.4475 12.4486 20.1811 12.6702L4.66773 25.5373C4.46968 25.7015 4.32312 25.9132 4.24588 26.1477L0.46409 37.526C0.358805 37.764 0.330086 38.0288 0.381899 38.2838C0.433392 38.539 0.564106 38.7745 0.757206 38.9634C0.949315 39.1523 1.19787 39.2869 1.47118 39.3512C1.74548 39.4155 2.03266 39.4066 2.30101 39.3255L27.2515 33.2634L34.7349 39.0752C34.9151 39.2166 35.13 39.3146 35.3607 39.3621C35.592 39.4103 35.8313 39.4063 36.0608 39.3502L69.9979 31.2384L79.6291 39.0534C79.8173 39.2058 80.045 39.3126 80.2916 39.3621C80.5372 39.4115 80.7927 39.4016 81.0343 39.3344L95.1028 35.4446L99.4085 38.9387C99.5511 39.0811 99.7244 39.1959 99.9175 39.273C100.133 39.3607 100.365 39.4008 100.597 39.3906C100.829 39.3804 101.056 39.32 101.263 39.2137C101.487 39.0969 101.673 38.9288 101.804 38.725C101.935 38.5212 102.005 38.2897 102.009 38.0543C102.011 37.8165 101.947 37.5828 101.824 37.3796H101.819V37.3816ZM55.448 3.27235L67.6658 13.1846L76.7593 33.1041L48.1509 9.89635L55.448 3.27235ZM37.7046 14.3816L45.6881 11.5157L49.3243 14.4657L34.3298 18.5018L37.7046 14.3806V14.3816ZM48.9322 17.3948L36.244 34.8343L32.2889 21.8741L48.9322 17.3948ZM4.02505 36.1035L6.95225 27.2962L13.0512 22.2382L24.4986 31.1286L4.02505 36.1045V36.1035ZM15.2625 20.4081L21.202 15.4816L29.1726 21.7178L32.9673 34.1566L15.2615 20.4081H15.2625ZM39.0722 35.8334L52.6486 17.1653L67.3341 29.0778L39.0722 35.8334ZM81.4551 36.3874L72.7449 17.3088L92.4935 33.3346L81.4551 36.3874ZM71.206 12.4407L76.7247 8.20968L91.5191 19.125L97.1566 33.4889L71.206 12.4407Z" fill="white"/>
</svg>
