<svg width="1443" height="539" viewBox="0 0 1443 539" fill="none" xmlns="http://www.w3.org/2000/svg">
<path d="M644.249 128.89L512.675 172.616L428.498 277.876M644.249 128.89L731.964 199.866M644.249 128.89L780.074 7.72764M1148.61 537L1361.15 477.086M1148.61 537L996.128 415.493M1148.61 537L986.622 171.658M731.964 199.866L989.901 410.47M731.964 199.866L493.326 533.746M731.964 199.866L429.867 279.974M487 537C487 536.047 487.333 535.172 487.889 534.485M495 537C495 536.669 494.96 536.348 494.884 536.041M780.074 7.72764C780.804 8.5105 781.845 9 783 9C784.286 9 785.43 8.39317 786.162 7.45025M780.074 7.72764C779.408 7.0131 779 6.05417 779 5C779 2.79086 780.791 1 783 1C785.209 1 787 2.79086 787 5C787 5.92319 786.687 6.77333 786.162 7.45025M786.162 7.45025L981.888 165.487M1093.42 81.0532C1094.11 81.6438 1095.01 82 1096 82C1097.66 82 1099.09 80.984 1099.69 79.5386M1093.42 81.0532C1092.55 80.3194 1092 79.2239 1092 78C1092 75.7909 1093.79 74 1096 74C1098.21 74 1100 75.7909 1100 78C1100 78.5452 1099.89 79.065 1099.69 79.5386M1093.42 81.0532L988.121 165.497M1099.69 79.5386L1324.05 245.493L1441 537L1368.12 478.504M1361.15 477.086C1361.62 478.767 1363.17 480 1365 480C1366.26 480 1367.39 479.416 1368.12 478.504M1361.15 477.086C1361.05 476.74 1361 476.376 1361 476C1361 475.046 1361.33 474.17 1361.89 473.482M1368.12 478.504C1368.67 477.818 1369 476.948 1369 476C1369 473.791 1367.21 472 1365 472C1363.74 472 1362.62 472.578 1361.89 473.482M1361.89 473.482L988.108 170.519M989.116 413.959C989.545 415.705 991.121 417 993 417C994.266 417 995.396 416.411 996.128 415.493M989.116 413.959C989.04 413.652 989 413.331 989 413C989 412.04 989.338 411.159 989.901 410.47M989.116 413.959L494.884 536.041M996.128 415.493C996.674 414.809 997 413.943 997 413C997 410.791 995.209 409 993 409C991.751 409 990.635 409.573 989.901 410.47M981.888 165.487C981.333 166.174 981 167.048 981 168C981 170.209 982.791 172 985 172C985.577 172 986.126 171.878 986.622 171.658M981.888 165.487C982.621 164.58 983.743 164 985 164C986.262 164 987.387 164.584 988.121 165.497M988.121 165.497C988.671 166.183 989 167.053 989 168C989 168.955 988.666 169.831 988.108 170.519M988.108 170.519C987.712 171.007 987.203 171.399 986.622 171.658M489.997 533.127C490.318 533.044 490.654 533 491 533C491.868 533 492.671 533.276 493.326 533.746M489.997 533.127C489.155 533.344 488.42 533.829 487.889 534.485M489.997 533.127L426.984 284.878M493.326 533.746C494.09 534.292 494.653 535.101 494.884 536.041M487.889 534.485L375.113 443.512M368.846 438.54C368.316 439.218 368 440.072 368 441C368 441.346 368.044 441.682 368.127 442.002M368.846 438.54C369.578 437.603 370.719 437 372 437C374.209 437 376 438.791 376 441C376 441.951 375.668 442.825 375.113 443.512M368.846 438.54L165.153 279.462M368.127 442.002C368.571 443.726 370.137 445 372 445C373.258 445 374.38 444.419 375.113 443.512M368.127 442.002L1 537L58.7152 366.789M63.0569 360.42C62.3231 359.552 61.226 359 60 359C57.7909 359 56 360.791 56 363C56 364.76 57.1363 366.254 58.7152 366.789M63.0569 360.42C63.6453 361.117 64 362.017 64 363C64 365.209 62.2091 367 60 367C59.5506 367 59.1184 366.926 58.7152 366.789M63.0569 360.42L158.942 279.578M165.076 274.442C164.342 273.561 163.236 273 162 273C159.791 273 158 274.791 158 277C158 277.982 158.354 278.882 158.942 279.578M165.076 274.442C165.653 275.136 166 276.027 166 277C166 277.929 165.684 278.783 165.153 279.462M165.076 274.442L275.92 182.553M165.153 279.462C164.421 280.398 163.281 281 162 281C160.773 281 159.676 280.448 158.942 279.578M275.92 182.553C276.654 183.437 277.761 184 279 184C280.357 184 281.557 183.324 282.28 182.29M275.92 182.553C275.346 181.86 275 180.97 275 180C275 177.791 276.791 176 279 176C281.209 176 283 177.791 283 180C283 180.852 282.734 181.642 282.28 182.29M282.28 182.29L422.702 278.735M428.498 277.876C427.814 277.328 426.945 277 426 277C424.632 277 423.424 277.687 422.702 278.735M428.498 277.876C429.157 278.403 429.645 279.135 429.867 279.974M429.867 279.974C429.954 280.302 430 280.645 430 281C430 282.869 428.718 284.439 426.984 284.878M426.984 284.878C426.669 284.958 426.34 285 426 285C423.791 285 422 283.209 422 281C422 280.159 422.259 279.379 422.702 278.735M736 200C736 202.209 734.209 204 732 204C729.791 204 728 202.209 728 200C728 197.791 729.791 196 732 196C734.209 196 736 197.791 736 200ZM1328 244C1328 246.209 1326.21 248 1324 248C1321.79 248 1320 246.209 1320 244C1320 241.791 1321.79 240 1324 240C1326.21 240 1328 241.791 1328 244ZM649 129C649 131.209 647.209 133 645 133C642.791 133 641 131.209 641 129C641 126.791 642.791 125 645 125C647.209 125 649 126.791 649 129Z" stroke="white"/>
</svg>
