<svg width="28" height="28" viewBox="0 0 28 28" fill="none" xmlns="http://www.w3.org/2000/svg">
<path d="M0.732422 15.3332H8.03633C8.27498 19.6918 9.67653 23.7404 11.936 27.1746C5.98347 26.2495 1.33346 21.387 0.732422 15.3332ZM0.732422 12.6666C1.33346 6.61293 5.98347 1.75037 11.936 0.825378C9.67653 4.25943 8.27498 8.30817 8.03633 12.6666H0.732422ZM27.2675 12.6666H19.9635C19.7248 8.30817 18.3233 4.25943 16.0639 0.825378C22.0164 1.75037 26.6664 6.61293 27.2675 12.6666ZM27.2675 15.3332C26.6664 21.387 22.0164 26.2495 16.0639 27.1746C18.3233 23.7404 19.7248 19.6918 19.9635 15.3332H27.2675ZM10.7076 15.3332H17.2923C17.0635 19.0438 15.8861 22.4976 13.9999 25.4554C12.1136 22.4976 10.9364 19.0438 10.7076 15.3332ZM10.7076 12.6666C10.9364 8.95614 12.1136 5.50231 13.9999 2.54457C15.8861 5.50231 17.0635 8.95614 17.2923 12.6666H10.7076Z" fill="white"/>
</svg>
