<svg width="30" height="30" viewBox="0 0 30 30" fill="none" xmlns="http://www.w3.org/2000/svg">
<path d="M27.0002 9.66665C28.473 9.66665 29.6668 10.8606 29.6668 12.3333V17.6666C29.6668 19.1394 28.473 20.3333 27.0002 20.3333H25.5843C24.9282 25.595 20.4396 29.6666 15.0002 29.6666V27C19.4184 27 23.0002 23.4182 23.0002 19V11C23.0002 6.5817 19.4184 2.99998 15.0002 2.99998C10.5819 2.99998 7.00016 6.5817 7.00016 11V20.3333H3.00016C1.5274 20.3333 0.333496 19.1394 0.333496 17.6666V12.3333C0.333496 10.8606 1.5274 9.66665 3.00016 9.66665H4.41602C5.07215 4.4049 9.56067 0.333313 15.0002 0.333313C20.4396 0.333313 24.9282 4.4049 25.5843 9.66665H27.0002ZM9.34608 20.0465L10.7596 17.7849C11.989 18.5549 13.4426 19 15.0002 19C16.5578 19 18.0114 18.5549 19.2407 17.7849L20.6543 20.0465C19.0151 21.0732 17.077 21.6666 15.0002 21.6666C12.9234 21.6666 10.9853 21.0732 9.34608 20.0465Z" fill="white"/>
</svg>
