<svg width="24" height="24" viewBox="0 0 24 24" fill="none" xmlns="http://www.w3.org/2000/svg">
<path d="M15.4026 18.5814C15.1922 18.3702 15.0741 18.0842 15.0742 17.7861C15.0743 17.488 15.1926 17.202 15.4031 16.991L16.9894 15.4049C17.2004 15.1944 17.4863 15.0762 17.7843 15.076C18.0824 15.0759 18.3684 15.1939 18.5796 15.4042L18.8456 15.6699L15.6682 18.8473L15.4026 18.5814ZM22.2936 19.1143L19.3762 16.1999L16.1981 19.3779L19.1123 22.2952C19.3205 22.5051 19.5684 22.6716 19.8415 22.7849C20.1147 22.8982 20.4076 22.9562 20.7033 22.9554H20.7042C21.1493 22.9555 21.5844 22.8236 21.9544 22.5762C22.3244 22.3289 22.6128 21.9774 22.7829 21.5662C22.9531 21.1549 22.9974 20.7024 22.9103 20.2659C22.8232 19.8295 22.6086 19.4287 22.2936 19.1143ZM15.4015 15.4016C14.1952 16.6078 12.6584 17.4293 10.9853 17.762C9.31223 18.0948 7.57804 17.924 6.00204 17.2712C4.42604 16.6184 3.07901 15.5129 2.13129 14.0945C1.18358 12.6761 0.677734 11.0086 0.677734 9.30274C0.677734 7.59688 1.18358 5.92934 2.13129 4.51097C3.07901 3.0926 4.42604 1.98711 6.00204 1.3343C7.57804 0.681486 9.31223 0.510669 10.9853 0.843449C12.6584 1.17623 14.1952 1.99766 15.4015 3.20386C16.2055 4.003 16.8436 4.95326 17.2791 5.99994C17.7145 7.04663 17.9387 8.16909 17.9387 9.30274C17.9387 10.4364 17.7145 11.5588 17.2791 12.6055C16.8436 13.6522 16.2055 14.6025 15.4015 15.4016ZM14.3409 4.26476C13.0048 2.92856 11.1925 2.17787 9.30288 2.17784C7.41324 2.1778 5.60098 2.92843 4.26478 4.26458C2.92858 5.60074 2.1779 7.41297 2.17786 9.30261C2.17783 11.1922 2.92846 13.0045 4.26461 14.3407C5.60076 15.6769 7.413 16.4276 9.30264 16.4276C11.1923 16.4277 13.0045 15.677 14.3407 14.3409C15.6769 13.0047 16.4276 11.1925 16.4277 9.30285C16.4277 7.41321 15.6771 5.60096 14.3409 4.26476ZM14.6249 9.18189V9.56787C14.6246 9.81499 14.5262 10.0519 14.3515 10.2266C14.1767 10.4013 13.9398 10.4996 13.6927 10.4999H13.3399C13.2518 10.8068 13.128 11.1022 12.9711 11.3803L13.2236 11.6326C13.3982 11.8075 13.4962 12.0446 13.4962 12.2918C13.4962 12.5389 13.3982 12.776 13.2236 12.9509L12.9506 13.2238C12.773 13.3932 12.5369 13.4877 12.2914 13.4876C12.0458 13.4875 11.8098 13.3927 11.6324 13.223L11.3755 12.9663C11.0988 13.1211 10.8049 13.243 10.4999 13.3296V13.6929C10.4996 13.94 10.4012 14.1769 10.2265 14.3516C10.0517 14.5263 9.81483 14.6246 9.56771 14.6249H9.18209C8.93498 14.6246 8.69806 14.5263 8.52331 14.3516C8.34855 14.1769 8.25023 13.94 8.2499 13.6929V13.3296C7.94486 13.243 7.65099 13.1211 7.37428 12.9663L7.11719 13.2234C6.93967 13.3931 6.70353 13.4878 6.45794 13.4877C6.21235 13.4876 5.97626 13.3928 5.79884 13.223L5.52637 12.9513C5.35174 12.7763 5.25365 12.5392 5.25362 12.292C5.25358 12.0447 5.35161 11.8076 5.52619 11.6326L5.7787 11.3802C5.62177 11.1022 5.49801 10.8067 5.40994 10.4999H5.05709C4.80998 10.4996 4.57306 10.4013 4.39831 10.2266C4.22355 10.0519 4.12523 9.81499 4.1249 9.56787V9.18189C4.12523 8.93477 4.22355 8.69788 4.39831 8.52316C4.57306 8.34844 4.80998 8.25016 5.05709 8.24988H5.40206C5.4887 7.93971 5.61175 7.64088 5.76864 7.35963L5.52621 7.1172C5.35164 6.94223 5.25361 6.70517 5.25361 6.45802C5.25361 6.21087 5.35164 5.9738 5.52621 5.79884L5.79921 5.52601C5.97682 5.35652 6.21294 5.26202 6.45844 5.26216C6.70395 5.26229 6.93996 5.35706 7.11739 5.52674L7.35487 5.76368C7.63728 5.60418 7.93776 5.47902 8.2499 5.39088V5.05689C8.25023 4.80978 8.34855 4.57288 8.5233 4.39816C8.69806 4.22344 8.93497 4.12516 9.18209 4.12488H9.56771C9.81483 4.12516 10.0517 4.22344 10.2265 4.39816C10.4012 4.57288 10.4996 4.80977 10.4999 5.05689V5.39088C10.8121 5.47905 11.1126 5.60421 11.3951 5.76368L11.6326 5.52638C11.8101 5.35667 12.0463 5.262 12.2918 5.26207C12.5374 5.26214 12.7735 5.35695 12.9509 5.52675L13.2234 5.79848C13.398 5.97347 13.4961 6.21058 13.4962 6.45781C13.4962 6.70503 13.3982 6.94217 13.2236 7.11721L12.9812 7.35964C13.1381 7.64088 13.2611 7.93971 13.3477 8.24988H13.6927C13.9398 8.25016 14.1767 8.34844 14.3515 8.52316C14.5262 8.69788 14.6246 8.93477 14.6249 9.18189ZM11.6249 9.37488C11.6249 8.92987 11.4929 8.49486 11.2457 8.12485C10.9985 7.75484 10.6471 7.46645 10.2359 7.29615C9.82481 7.12585 9.37241 7.0813 8.93595 7.16811C8.49949 7.25493 8.09858 7.46922 7.78391 7.78389C7.46924 8.09856 7.25495 8.49947 7.16813 8.93593C7.08132 9.37239 7.12587 9.82479 7.29617 10.2359C7.46647 10.6471 7.75486 10.9985 8.12487 11.2457C8.49488 11.4929 8.92989 11.6249 9.3749 11.6249C9.97144 11.6242 10.5434 11.387 10.9652 10.9652C11.387 10.5433 11.6242 9.97142 11.6249 9.37488Z" fill="white"/>
</svg>
