<svg width="24" height="24" viewBox="0 0 24 24" fill="none" xmlns="http://www.w3.org/2000/svg">
<path d="M19.9022 16.9688C20.1924 17.7871 20.974 18.375 21.8906 18.375C23.0537 18.375 24 17.4287 24 16.2656C24 15.1025 23.0537 14.1562 21.8906 14.1562C20.974 14.1562 20.1924 14.7442 19.9022 15.5625H15.4688V14.1562H19.0781C19.259 14.1562 19.433 14.0865 19.5638 13.9615L21.0266 12.5641C21.2905 12.6832 21.5828 12.75 21.8906 12.75C23.0537 12.75 24 11.8037 24 10.6406C24 9.47752 23.0537 8.53125 21.8906 8.53125C20.7275 8.53125 19.7812 9.47752 19.7812 10.6406C19.7812 10.9827 19.8636 11.3057 20.0087 11.5917L18.7962 12.75H15.4688V12.0469C15.4688 11.1302 14.8809 10.3487 14.0625 10.0584V6.32812C14.0625 2.8388 11.2237 0 7.73438 0C4.24505 0 1.40625 2.8388 1.40625 6.32812V10.0584C0.587859 10.3487 0 11.1302 0 12.0469V20.4844C0 21.6475 0.946266 22.5938 2.10938 22.5938H13.3594C14.5225 22.5938 15.4688 21.6475 15.4688 20.4844V19.7812H18.7512L19.9124 21.1586C19.8277 21.3868 19.7812 21.6333 19.7812 21.8906C19.7812 23.0537 20.7275 24 21.8906 24C23.0537 24 24 23.0537 24 21.8906C24 20.7275 23.0537 19.7812 21.8906 19.7812C21.5048 19.7812 21.1432 19.8858 20.8318 20.0674L19.6157 18.6249C19.4821 18.4665 19.2854 18.375 19.0781 18.375H15.4688V16.9688H19.9022ZM21.8906 15.5625C22.2783 15.5625 22.5938 15.8779 22.5938 16.2656C22.5938 16.6533 22.2783 16.9688 21.8906 16.9688C21.5029 16.9688 21.1875 16.6533 21.1875 16.2656C21.1875 15.8779 21.5029 15.5625 21.8906 15.5625ZM21.8906 9.9375C22.2783 9.9375 22.5938 10.2529 22.5938 10.6406C22.5938 11.0283 22.2783 11.3438 21.8906 11.3438C21.5029 11.3438 21.1875 11.0283 21.1875 10.6406C21.1875 10.2529 21.5029 9.9375 21.8906 9.9375ZM2.8125 6.32812C2.8125 3.6142 5.02045 1.40625 7.73438 1.40625C10.4483 1.40625 12.6562 3.6142 12.6562 6.32812V9.9375H11.25V6.32812C11.25 4.38961 9.67289 2.8125 7.73438 2.8125C5.79586 2.8125 4.21875 4.38961 4.21875 6.32812V9.9375H2.8125V6.32812ZM9.84375 6.32812V9.9375H5.625V6.32812C5.625 5.16502 6.57127 4.21875 7.73438 4.21875C8.89748 4.21875 9.84375 5.16502 9.84375 6.32812ZM14.0625 20.4844C14.0625 20.8721 13.7471 21.1875 13.3594 21.1875H2.10938C1.72167 21.1875 1.40625 20.8721 1.40625 20.4844V12.0469C1.40625 11.6592 1.72167 11.3438 2.10938 11.3438H13.3594C13.7471 11.3438 14.0625 11.6592 14.0625 12.0469V20.4844ZM21.8906 21.1875C22.2783 21.1875 22.5938 21.5029 22.5938 21.8906C22.5938 22.2783 22.2783 22.5938 21.8906 22.5938C21.5029 22.5938 21.1875 22.2783 21.1875 21.8906C21.1875 21.5029 21.5029 21.1875 21.8906 21.1875Z" fill="white"/>
</svg>
