<svg width="24" height="24" viewBox="0 0 24 24" fill="none" xmlns="http://www.w3.org/2000/svg">
<g clip-path="url(#clip0_461_1118)">
<path d="M18.1113 15.4219H19.391C21.6776 15.4219 23.5312 13.5682 23.5312 11.2816C23.5312 9.4875 22.39 7.96013 20.794 7.3853C20.5797 4.22864 17.9517 1.73438 14.7406 1.73438C12.2129 1.73438 10.0464 3.28027 9.13425 5.47809C8.50556 4.89127 7.66219 4.53159 6.73439 4.53159C5.02814 4.53159 3.60595 5.74617 3.2843 7.35783C1.64738 7.9103 0.46875 9.4583 0.46875 11.2816C0.46875 13.5682 2.32242 15.4219 4.60903 15.4219H5.91408" stroke="white" stroke-width="1.5" stroke-miterlimit="10" stroke-linecap="round" stroke-linejoin="round"/>
<path d="M5.8125 9.84966V13.7056C5.8125 17.6014 8.33353 21.0543 12 22.2656C15.6665 21.0543 18.1875 17.6014 18.1875 13.7056V9.84966C16.0395 9.64809 13.9386 9.08123 12 8.17767C10.0614 9.08123 7.96055 9.64809 5.8125 9.84966Z" stroke="white" stroke-width="1.5" stroke-miterlimit="10" stroke-linecap="round" stroke-linejoin="round"/>
<path d="M13.5567 13.4238V12.9049C13.5567 12.045 12.8597 11.3479 11.9998 11.3479C11.1399 11.3479 10.4429 12.045 10.4429 12.9049V13.4238" stroke="white" stroke-width="1.5" stroke-miterlimit="10" stroke-linecap="round" stroke-linejoin="round"/>
<path d="M12.5216 16.0946V17.0256H11.4903V16.0946C11.3463 15.9579 11.256 15.7652 11.256 15.5509C11.256 15.1367 11.5917 14.8009 12.006 14.8009C12.4202 14.8009 12.756 15.1367 12.756 15.5509C12.756 15.7652 12.6656 15.9579 12.5216 16.0946ZM14.0759 13.4222H9.92409C9.46552 13.4222 9.09375 13.794 9.09375 14.2525V17.574C9.09375 18.0326 9.46552 18.4043 9.92409 18.4043H14.0759C14.5345 18.4043 14.9062 18.0326 14.9062 17.574V14.2525C14.9062 13.794 14.5345 13.4222 14.0759 13.4222Z" fill="white"/>
</g>
<defs>
<clipPath id="clip0_461_1118">
<rect width="24" height="24" fill="white"/>
</clipPath>
</defs>
</svg>
