<svg width="24" height="24" viewBox="0 0 24 24" fill="none" xmlns="http://www.w3.org/2000/svg">
<g clip-path="url(#clip0_461_1198)">
<path d="M11.9999 22.6172C2.83646 16.2246 3.90868 6.88767 3.90868 6.88767C10.3664 4.91222 11.9999 2.74341 11.9999 2.74341C11.9999 2.74341 13.6334 4.91222 20.0911 6.88767C20.0911 6.88767 21.1633 16.2246 11.9999 22.6172Z" stroke="white" stroke-width="1.5" stroke-miterlimit="10" stroke-linecap="round" stroke-linejoin="round"/>
<path d="M14.5876 10.8495H9.41247C9.09297 10.8495 8.83398 11.1085 8.83398 11.428V15.4547C8.83398 15.7742 9.09297 16.0332 9.41247 16.0332H14.5876C14.9071 16.0332 15.1661 15.7742 15.1661 15.4547V11.428C15.1661 11.1085 14.9071 10.8495 14.5876 10.8495Z" stroke="white" stroke-width="1.5" stroke-miterlimit="10" stroke-linecap="round" stroke-linejoin="round"/>
<path d="M14.307 10.8477V9.75884C14.307 8.48473 13.274 7.45184 11.9999 7.45184C10.7258 7.45184 9.69287 8.48473 9.69287 9.75884V10.8477" stroke="white" stroke-width="1.5" stroke-miterlimit="10" stroke-linecap="round" stroke-linejoin="round"/>
<path d="M12 13.1933V13.6895" stroke="white" stroke-width="1.5" stroke-miterlimit="10" stroke-linecap="round" stroke-linejoin="round"/>
<path d="M3.51562 2.78906C3.51562 3.56569 2.886 4.19531 2.10938 4.19531C1.33275 4.19531 0.703125 3.56569 0.703125 2.78906C0.703125 2.01244 1.33275 1.38281 2.10938 1.38281C2.886 1.38281 3.51562 2.01244 3.51562 2.78906Z" stroke="white" stroke-width="1.5" stroke-miterlimit="10" stroke-linecap="round" stroke-linejoin="round"/>
<path d="M3.51562 19.5918C3.51562 20.3684 2.886 20.998 2.10938 20.998C1.33275 20.998 0.703125 20.3684 0.703125 19.5918C0.703125 18.8152 1.33275 18.1855 2.10938 18.1855C2.886 18.1855 3.51562 18.8152 3.51562 19.5918Z" stroke="white" stroke-width="1.5" stroke-miterlimit="10" stroke-linecap="round" stroke-linejoin="round"/>
<path d="M3.51562 19.5918H8.53753" stroke="white" stroke-width="1.5" stroke-miterlimit="10" stroke-linecap="round" stroke-linejoin="round"/>
<path d="M20.4844 19.5918C20.4844 20.3684 21.114 20.998 21.8906 20.998C22.6673 20.998 23.2969 20.3684 23.2969 19.5918C23.2969 18.8152 22.6673 18.1855 21.8906 18.1855C21.114 18.1855 20.4844 18.8152 20.4844 19.5918Z" stroke="white" stroke-width="1.5" stroke-miterlimit="10" stroke-linecap="round" stroke-linejoin="round"/>
<path d="M20.4843 19.5918H15.4624" stroke="white" stroke-width="1.5" stroke-miterlimit="10" stroke-linecap="round" stroke-linejoin="round"/>
<path d="M3.51562 2.78872H7.21561V5.70312" stroke="white" stroke-width="1.5" stroke-miterlimit="10" stroke-linecap="round" stroke-linejoin="round"/>
<path d="M20.4844 2.78906C20.4844 3.56569 21.114 4.19531 21.8906 4.19531C22.6673 4.19531 23.2969 3.56569 23.2969 2.78906C23.2969 2.01244 22.6673 1.38281 21.8906 1.38281C21.114 1.38281 20.4844 2.01244 20.4844 2.78906Z" stroke="white" stroke-width="1.5" stroke-miterlimit="10" stroke-linecap="round" stroke-linejoin="round"/>
<path d="M20.4842 2.78872H16.7842V5.70312" stroke="white" stroke-width="1.5" stroke-miterlimit="10" stroke-linecap="round" stroke-linejoin="round"/>
<path d="M19.7749 11.1484H23.2971" stroke="white" stroke-width="1.5" stroke-miterlimit="10" stroke-linecap="round" stroke-linejoin="round"/>
<path d="M4.22531 11.1484H0.703125" stroke="white" stroke-width="1.5" stroke-miterlimit="10" stroke-linecap="round" stroke-linejoin="round"/>
<path d="M5.26057 14.4785H2.30225" stroke="white" stroke-width="1.5" stroke-miterlimit="10" stroke-linecap="round" stroke-linejoin="round"/>
<path d="M18.7397 14.4785H21.6981" stroke="white" stroke-width="1.5" stroke-miterlimit="10" stroke-linecap="round" stroke-linejoin="round"/>
</g>
<defs>
<clipPath id="clip0_461_1198">
<rect width="24" height="24" fill="white"/>
</clipPath>
</defs>
</svg>
