<svg width="24" height="24" viewBox="0 0 24 24" fill="none" xmlns="http://www.w3.org/2000/svg">
<path d="M2.6665 5.55066V10.4557C2.66577 15.6566 5.92725 20.4064 10.7832 22.274C11.175 22.4249 11.5874 22.4996 11.9998 22.4996C12.4121 22.4996 12.8245 22.4242 13.217 22.274L13.9451 21.9935C18.4333 20.2672 21.3337 15.9254 21.333 10.9332V5.55066C21.333 5.14783 21.0144 4.81677 20.6123 4.80139C17.9163 4.69666 15.1675 3.63391 12.4421 1.64392C12.1785 1.45203 11.821 1.45203 11.5574 1.64392C8.8313 3.63391 6.08252 4.69666 3.38721 4.80139C2.98511 4.81677 2.6665 5.14783 2.6665 5.55066ZM4.1665 6.25232C6.77979 6.00549 9.40918 4.97131 11.9998 3.17029C14.5896 4.97131 17.2197 6.00549 19.833 6.25232V10.9332C19.8337 15.2999 17.3113 19.0917 13.406 20.5931L12.6787 20.8737C12.2407 21.0421 11.7581 21.0421 11.3215 20.8737C7.04126 19.2272 4.16577 15.0406 4.1665 10.4557V6.25232Z" fill="white"/>
<path d="M10.4641 15.0984C10.6047 15.239 10.7952 15.3181 10.9944 15.3181C11.1936 15.3181 11.384 15.239 11.5247 15.0984L16.1895 10.4336C16.4824 10.1406 16.4824 9.66602 16.1895 9.37305C15.8965 9.08008 15.4219 9.08008 15.1289 9.37305L10.9944 13.5076L8.87109 11.3835C8.57812 11.0906 8.10352 11.0906 7.81055 11.3835C7.51758 11.6765 7.51758 12.1511 7.81055 12.4441L10.4641 15.0984Z" fill="white"/>
</svg>
