<svg width="89" height="80" viewBox="0 0 89 80" fill="none" xmlns="http://www.w3.org/2000/svg">
<path d="M6.04766 56.1755H12.353V73.7557C12.353 77.9992 10.4483 80 6.17858 80C1.77964 80 0.00585938 78.0009 0.00585938 73.7549V43.0813C0.00585938 38.8379 1.77964 36.837 6.17858 36.837C10.4483 36.837 12.353 38.9015 12.353 43.0822V50.9617H7.62378V42.8396C7.62378 41.4452 7.16429 40.8989 6.17858 40.8989C5.12783 40.8989 4.66834 41.4452 4.66834 42.8998V73.9983C4.66834 75.3927 5.12783 75.9381 6.17858 75.9381C7.16429 75.9381 7.62378 75.3927 7.62378 73.9983V60.2985H6.04766V56.1755ZM22.0065 62.48H21.1526V79.6362H16.556V37.2017H23.1873C27.3253 37.2017 28.7697 38.5953 28.7697 42.8998V56.9635C28.7697 59.8134 27.8515 61.3282 26.3396 61.9949C27.6378 67.8838 28.9735 73.7644 30.3466 79.6362H25.6183C24.4375 73.8736 23.1873 68.3028 22.0065 62.48ZM21.1526 41.3841V58.4792H22.8605C23.7136 58.4792 24.2389 58.0551 24.2389 56.9033V43.0813C24.2389 41.748 23.7795 41.3841 22.7946 41.3841H21.1526ZM37.6377 75.4564H42.9573V79.6387H32.9093V37.2009H42.9573V41.3841H37.6377V56.1755H42.2351V60.2977H37.6377V75.4564ZM51.1006 75.4564H56.4194V79.6387H46.3714V37.2009H56.4194V41.3841H51.1006V56.1755H55.6981V60.2977H51.1006V75.4564ZM69.4887 37.2009H73.8885V79.6353H68.7665L63.5778 49.2043H63.4461L63.8397 60.8439L64.2341 79.637H59.8377V37.2026H64.9606L70.2143 67.8159H70.3461L69.8241 56.2977L69.4887 37.2017V37.2009ZM82.8207 75.4564H88.1403V79.6387H78.0924V37.2009H88.1403V41.3841H82.8207V56.1755H87.4147V60.2977H82.8181L82.8207 75.4564ZM87.9795 32.5058L81.3567 15.5243C81.2743 15.317 81.1356 15.1373 80.9562 15.0056L67.0775 4.6968C66.842 4.52448 66.5575 4.43335 66.2663 4.43702C65.9749 4.4382 65.6917 4.5345 65.4594 4.71143L59.5939 9.23874L48.7082 0.350996C48.4586 0.150617 48.1462 0.0460333 47.8269 0.0559426C47.5085 0.0622679 47.2029 0.182779 46.9652 0.395728L39.029 7.64734L31.3127 10.4344C31.0963 10.5118 30.9045 10.646 30.7574 10.8233L26.1274 16.5093L19.1221 10.9953C18.8801 10.8074 18.5816 10.7079 18.2759 10.7131C17.9661 10.7174 17.6684 10.825 17.4382 11.0177L4.03344 22.2065C3.86231 22.3493 3.73567 22.5334 3.66893 22.7372L0.401173 32.6314C0.310199 32.8384 0.285384 33.0686 0.330154 33.2903C0.374648 33.5123 0.487595 33.717 0.654448 33.8813C0.820446 34.0456 1.03522 34.1626 1.27138 34.2185C1.50839 34.2744 1.75654 34.2667 1.98842 34.1962L23.5476 28.9248L30.0138 33.9785C30.1695 34.1015 30.3552 34.1867 30.5546 34.228C30.7545 34.2699 30.9612 34.2664 31.1595 34.2177L60.4838 27.1639L68.8059 33.9596C68.9685 34.0921 69.1653 34.185 69.3783 34.228C69.5905 34.271 69.8113 34.2624 70.0201 34.2039L82.1764 30.8215L85.8968 33.8598C86.02 33.9837 86.1698 34.0835 86.3366 34.1506C86.5227 34.2268 86.7229 34.2617 86.9237 34.2528C87.1244 34.2439 87.3208 34.1914 87.4995 34.0989C87.6928 33.9974 87.8537 33.8512 87.9667 33.674C88.0796 33.4968 88.1403 33.2955 88.1438 33.0908C88.146 32.884 88.0906 32.6808 87.9838 32.5041H87.9795V32.5058ZM47.9116 2.84562L58.4687 11.465L66.3262 28.7863L41.6062 8.60562L47.9116 2.84562ZM32.5799 12.5058L39.4782 10.0138L42.6202 12.579L29.6638 16.0886L32.5799 12.505V12.5058ZM42.2814 15.126L31.3178 30.2908L27.9003 19.0211L42.2814 15.126ZM3.47812 31.3944L6.00744 23.7359L11.2774 19.3377L21.1688 27.0684L3.47812 31.3953V31.3944ZM13.1881 17.7463L18.3204 13.4624L25.2076 18.8852L28.4864 29.7015L13.1873 17.7463H13.1881ZM33.7616 31.1596L45.4926 14.9265L58.182 25.2852L33.7616 31.1596ZM70.3837 31.6413L62.8574 15.0512L79.9218 28.9867L70.3837 31.6413ZM61.5277 10.8181L66.2962 7.13895L79.0798 16.6306L83.951 29.1209L61.5277 10.8181Z" fill="#1E1C23"/>
</svg>
