<svg width="25" height="29" viewBox="0 0 25 29" fill="none" xmlns="http://www.w3.org/2000/svg">
<path d="M11.0002 17.6666V28.3333H0.333496C0.333496 22.4422 5.10912 17.6666 11.0002 17.6666ZM11.0002 16.3333C6.58016 16.3333 3.00016 12.7533 3.00016 8.33331C3.00016 3.91331 6.58016 0.333313 11.0002 0.333313C15.4202 0.333313 19.0002 3.91331 19.0002 8.33331C19.0002 12.7533 15.4202 16.3333 11.0002 16.3333ZM14.4596 24.082C14.3771 23.7348 14.3335 23.3725 14.3335 23C14.3335 22.6276 14.3771 22.2653 14.4595 21.9181L13.1374 21.1548L14.4707 18.8453L15.7938 19.6092C16.3179 19.1134 16.957 18.7378 17.6668 18.5265V17H20.3335V18.5265C21.0434 18.7378 21.6823 19.1134 22.2064 19.6092L23.5296 18.8452L24.8631 21.1546L23.5408 21.918C23.6232 22.2653 23.6668 22.6276 23.6668 23C23.6668 23.3724 23.6232 23.7346 23.5408 24.0818L24.8631 24.8452L23.5298 27.1546L22.2066 26.3906C21.6824 26.8865 21.0435 27.2621 20.3336 27.4733V29H17.667V27.4734C16.9571 27.2622 16.318 26.8866 15.7939 26.3908L14.4708 27.1548L13.1374 24.8453L14.4596 24.082ZM19.0002 21.6666C18.2638 21.6666 17.6668 22.2636 17.6668 23C17.6668 23.7364 18.2638 24.3333 19.0002 24.3333C19.7366 24.3333 20.3335 23.7364 20.3335 23C20.3335 22.2636 19.7366 21.6666 19.0002 21.6666Z" fill="white"/>
</svg>
