<svg width="44" height="44" viewBox="0 0 44 44" fill="none" xmlns="http://www.w3.org/2000/svg">
<path d="M4.88892 10.1772V19.1697C4.88757 28.7048 10.8669 37.4127 19.7695 40.8367C20.4879 41.1133 21.2439 41.2503 21.9999 41.2503C22.7559 41.2503 23.5118 41.112 24.2316 40.8367L25.5663 40.3224C33.7948 37.1575 39.1122 29.1976 39.1108 20.0452V10.1772C39.1108 9.43866 38.5267 8.83173 37.7896 8.80353C32.8468 8.61151 27.8074 6.66315 22.8109 3.01483C22.3275 2.66302 21.6722 2.66302 21.1888 3.01483C16.191 6.66315 11.1516 8.61151 6.21021 8.80353C5.47302 8.83173 4.88892 9.43866 4.88892 10.1772ZM7.63892 11.4636C12.4299 11.011 17.2505 9.11505 21.9999 5.81317C26.7479 9.11505 31.5698 11.011 36.3608 11.4636V20.0452C36.3622 28.0508 31.7377 35.0024 24.578 37.7551L23.2446 38.2693C22.4417 38.5782 21.5568 38.5782 20.7565 38.2693C12.9093 35.2508 7.63757 27.5755 7.63892 19.1697V11.4636Z" fill="#F38701"/>
<path d="M19.1842 27.6796C19.442 27.9374 19.7911 28.0824 20.1564 28.0824C20.5216 28.0824 20.8707 27.9374 21.1285 27.6796L29.6807 19.1274C30.2178 18.5903 30.2178 17.7202 29.6807 17.1831C29.1436 16.646 28.2734 16.646 27.7363 17.1831L20.1564 24.7631L16.2637 20.869C15.7265 20.3319 14.8564 20.3319 14.3193 20.869C13.7822 21.4061 13.7822 22.2762 14.3193 22.8134L19.1842 27.6796Z" fill="#F38701"/>
</svg>
