<svg width="44" height="44" viewBox="0 0 44 44" fill="none" xmlns="http://www.w3.org/2000/svg">
<g clip-path="url(#clip0_469_1022)">
<path d="M7.33325 23.833C7.92909 28.475 10.7818 32.5982 14.6666 34.833" stroke="#F38701" stroke-width="2.5" stroke-linecap="round" stroke-linejoin="round"/>
<path d="M36.6667 20.1663C36.2183 16.94 34.7216 13.9507 32.4072 11.6587C30.0927 9.36673 27.0889 7.89931 23.8584 7.48247C20.6279 7.06563 17.35 7.72251 14.5295 9.35191C11.7091 10.9813 9.50262 13.4928 8.25 16.4996" stroke="#F38701" stroke-width="2.5" stroke-linecap="round" stroke-linejoin="round"/>
<path d="M7.33325 9.16699V16.5003H14.6666" stroke="#F38701" stroke-width="2.5" stroke-linecap="round" stroke-linejoin="round"/>
<path d="M22 27.5H25.6667C26.1529 27.5 26.6192 27.6932 26.963 28.037C27.3068 28.3808 27.5 28.8471 27.5 29.3333V31.1667C27.5 31.6529 27.3068 32.1192 26.963 32.463C26.6192 32.8068 26.1529 33 25.6667 33H23.8333C23.3471 33 22.8808 33.1932 22.537 33.537C22.1932 33.8808 22 34.3471 22 34.8333V36.6667C22 37.1529 22.1932 37.6192 22.537 37.963C22.8808 38.3068 23.3471 38.5 23.8333 38.5H27.5" stroke="#F38701" stroke-width="2.5" stroke-linecap="round" stroke-linejoin="round"/>
<path d="M33 27.5V31.1667C33 31.6529 33.1932 32.1192 33.537 32.463C33.8808 32.8068 34.3471 33 34.8333 33H36.6667" stroke="#F38701" stroke-width="2.5" stroke-linecap="round" stroke-linejoin="round"/>
<path d="M38.5 27.5V38.5" stroke="#F38701" stroke-width="2.5" stroke-linecap="round" stroke-linejoin="round"/>
</g>
<defs>
<clipPath id="clip0_469_1022">
<rect width="44" height="44" fill="white"/>
</clipPath>
</defs>
</svg>
