<svg width="38" height="39" viewBox="0 0 38 39" fill="none" xmlns="http://www.w3.org/2000/svg">
<path d="M29.1341 36.2828C31.1017 35.604 32.7429 34.2311 33.7677 32.4596L34.853 30.5837H32.6857H28.1667C26.832 30.5837 25.7501 29.5017 25.7501 28.167V20.8337C25.7501 19.4989 26.832 18.417 28.1667 18.417H33.5533H34.9688L34.7937 17.0123C33.8144 9.15953 27.1177 3.08366 19.0001 3.08366C10.8824 3.08366 4.18572 9.15953 3.20649 17.0123L3.03133 18.417H4.44688H9.83342C11.1681 18.417 12.2501 19.4989 12.2501 20.8337V28.167C12.2501 29.5017 11.1681 30.5837 9.83342 30.5837H4.33341C2.99871 30.5837 1.91675 29.5017 1.91675 28.167V19.0003C1.91675 9.56546 9.56521 1.91699 19.0001 1.91699C28.4349 1.91699 36.0834 9.56546 36.0834 19.0003V20.8313V20.8337V28.167V28.1706C36.0834 28.1707 36.0834 28.1709 36.0834 28.171C36.0817 32.4434 33.331 36.0755 29.5033 37.3905L29.1341 36.2828Z" stroke="#F38701" stroke-width="2.5"/>
</svg>
