<svg width="44" height="44" viewBox="0 0 44 44" fill="none" xmlns="http://www.w3.org/2000/svg">
<g clip-path="url(#clip0_470_1047)">
<path d="M5.5 22H7.33333M22 5.5V7.33333M36.6667 22H38.5M10.2667 10.2667L11.55 11.55M33.7333 10.2667L32.45 11.55" stroke="#F38701" stroke-width="2.5" stroke-linecap="round" stroke-linejoin="round"/>
<path d="M16.4999 29.333C14.9608 28.1787 13.8239 26.5693 13.2502 24.7329C12.6766 22.8965 12.6953 20.9261 13.3037 19.1009C13.9121 17.2757 15.0793 15.6882 16.6401 14.5633C18.2008 13.4384 20.076 12.833 21.9999 12.833C23.9238 12.833 25.799 13.4384 27.3598 14.5633C28.9205 15.6882 30.0878 17.2757 30.6962 19.1009C31.3046 20.9261 31.3233 22.8965 30.7496 24.7329C30.176 26.5693 29.0391 28.1787 27.4999 29.333C26.7841 30.0416 26.2452 30.9087 25.9267 31.8641C25.6082 32.8196 25.5191 33.8367 25.6666 34.833C25.6666 35.8055 25.2803 36.7381 24.5926 37.4257C23.905 38.1134 22.9724 38.4997 21.9999 38.4997C21.0275 38.4997 20.0948 38.1134 19.4072 37.4257C18.7196 36.7381 18.3333 35.8055 18.3333 34.833C18.4808 33.8367 18.3917 32.8196 18.0732 31.8641C17.7547 30.9087 17.2157 30.0416 16.4999 29.333Z" stroke="#F38701" stroke-width="2.5" stroke-linecap="round" stroke-linejoin="round"/>
<path d="M17.7834 31.167H26.2168" stroke="#F38701" stroke-width="2.5" stroke-linecap="round" stroke-linejoin="round"/>
</g>
<defs>
<clipPath id="clip0_470_1047">
<rect width="44" height="44" fill="white"/>
</clipPath>
</defs>
</svg>
