<svg width="1443" height="539" viewBox="0 0 1443 539" fill="none" xmlns="http://www.w3.org/2000/svg">
<path d="M644.249 410.11L512.675 366.384L428.498 261.124M644.249 410.11L731.964 339.134M644.249 410.11L780.074 531.272M1148.61 2L1361.15 61.9144M1148.61 2L996.128 123.507M1148.61 2L986.622 367.342M731.964 339.134L989.901 128.53M731.964 339.134L493.326 5.25446M731.964 339.134L429.867 259.026M487 2C487 2.95268 487.333 3.82757 487.889 4.51459M495 2C495 2.33073 494.96 2.6521 494.884 2.95947M780.074 531.272C780.804 530.49 781.845 530 783 530C784.286 530 785.43 530.607 786.162 531.55M780.074 531.272C779.408 531.987 779 532.946 779 534C779 536.209 780.791 538 783 538C785.209 538 787 536.209 787 534C787 533.077 786.687 532.227 786.162 531.55M786.162 531.55L981.888 373.513M1093.42 457.947C1094.11 457.356 1095.01 457 1096 457C1097.66 457 1099.09 458.016 1099.69 459.461M1093.42 457.947C1092.55 458.681 1092 459.776 1092 461C1092 463.209 1093.79 465 1096 465C1098.21 465 1100 463.209 1100 461C1100 460.455 1099.89 459.935 1099.69 459.461M1093.42 457.947L988.121 373.503M1099.69 459.461L1324.05 293.507L1441 2L1368.12 60.4961M1361.15 61.9144C1361.62 60.2328 1363.17 59 1365 59C1366.26 59 1367.39 59.5839 1368.12 60.4961M1361.15 61.9144C1361.05 62.2596 1361 62.6237 1361 63C1361 63.954 1361.33 64.8301 1361.89 65.5175M1368.12 60.4961C1368.67 61.1815 1369 62.0523 1369 63C1369 65.2091 1367.21 67 1365 67C1363.74 67 1362.62 66.422 1361.89 65.5175M1361.89 65.5175L988.108 368.481M989.116 125.041C989.545 123.295 991.121 122 993 122C994.266 122 995.396 122.589 996.128 123.507M989.116 125.041C989.04 125.348 989 125.669 989 126C989 126.96 989.338 127.841 989.901 128.53M989.116 125.041L494.884 2.95947M996.128 123.507C996.674 124.191 997 125.057 997 126C997 128.209 995.209 130 993 130C991.751 130 990.635 129.427 989.901 128.53M981.888 373.513C981.333 372.826 981 371.952 981 371C981 368.791 982.791 367 985 367C985.577 367 986.126 367.122 986.622 367.342M981.888 373.513C982.621 374.42 983.743 375 985 375C986.262 375 987.387 374.416 988.121 373.503M988.121 373.503C988.671 372.817 989 371.947 989 371C989 370.045 988.666 369.169 988.108 368.481M988.108 368.481C987.712 367.993 987.203 367.601 986.622 367.342M489.997 5.87323C490.318 5.95597 490.654 6 491 6C491.868 6 492.671 5.72375 493.326 5.25446M489.997 5.87323C489.155 5.6558 488.42 5.17093 487.889 4.51459M489.997 5.87323L426.984 254.122M493.326 5.25446C494.09 4.70769 494.653 3.8989 494.884 2.95947M487.889 4.51459L375.113 95.4885M368.846 100.46C368.316 99.7815 368 98.9276 368 98C368 97.6539 368.044 97.318 368.127 96.9977M368.846 100.46C369.578 101.397 370.719 102 372 102C374.209 102 376 100.209 376 98C376 97.0487 375.668 96.175 375.113 95.4885M368.846 100.46L165.153 259.538M368.127 96.9977C368.571 95.2736 370.137 94 372 94C373.258 94 374.38 94.5806 375.113 95.4885M368.127 96.9977L1 2L58.7152 172.211M63.0569 178.58C62.3231 179.448 61.226 180 60 180C57.7909 180 56 178.209 56 176C56 174.24 57.1363 172.746 58.7152 172.211M63.0569 178.58C63.6453 177.883 64 176.983 64 176C64 173.791 62.2091 172 60 172C59.5506 172 59.1184 172.074 58.7152 172.211M63.0569 178.58L158.942 259.422M165.076 264.558C164.342 265.439 163.236 266 162 266C159.791 266 158 264.209 158 262C158 261.018 158.354 260.118 158.942 259.422M165.076 264.558C165.653 263.864 166 262.973 166 262C166 261.071 165.684 260.217 165.153 259.538M165.076 264.558L275.92 356.447M165.153 259.538C164.421 258.602 163.281 258 162 258C160.773 258 159.676 258.552 158.942 259.422M275.92 356.447C276.654 355.563 277.761 355 279 355C280.357 355 281.557 355.676 282.28 356.71M275.92 356.447C275.346 357.14 275 358.03 275 359C275 361.209 276.791 363 279 363C281.209 363 283 361.209 283 359C283 358.148 282.734 357.358 282.28 356.71M282.28 356.71L422.702 260.265M428.498 261.124C427.814 261.672 426.945 262 426 262C424.632 262 423.424 261.313 422.702 260.265M428.498 261.124C429.157 260.597 429.645 259.865 429.867 259.026M429.867 259.026C429.954 258.698 430 258.355 430 258C430 256.131 428.718 254.561 426.984 254.122M426.984 254.122C426.669 254.042 426.34 254 426 254C423.791 254 422 255.791 422 258C422 258.841 422.259 259.621 422.702 260.265M736 339C736 336.791 734.209 335 732 335C729.791 335 728 336.791 728 339C728 341.209 729.791 343 732 343C734.209 343 736 341.209 736 339ZM1328 295C1328 292.791 1326.21 291 1324 291C1321.79 291 1320 292.791 1320 295C1320 297.209 1321.79 299 1324 299C1326.21 299 1328 297.209 1328 295ZM649 410C649 407.791 647.209 406 645 406C642.791 406 641 407.791 641 410C641 412.209 642.791 414 645 414C647.209 414 649 412.209 649 410Z" stroke="url(#paint0_linear_378_2273)"/>
<defs>
<linearGradient id="paint0_linear_378_2273" x1="1441" y1="-578" x2="1371.5" y2="437.5" gradientUnits="userSpaceOnUse">
<stop stop-color="#1E1C23"/>
<stop offset="0.595366" stop-color="#1E1C23" stop-opacity="0.2"/>
<stop offset="1" stop-color="#1E1C23" stop-opacity="0"/>
</linearGradient>
</defs>
</svg>
