<svg width="44" height="44" viewBox="0 0 44 44" fill="none" xmlns="http://www.w3.org/2000/svg">
<g clip-path="url(#clip0_470_1037)">
<path d="M22 27.5C22 28.9587 22.5795 30.3576 23.6109 31.3891C24.6424 32.4205 26.0413 33 27.5 33C28.9587 33 30.3576 32.4205 31.3891 31.3891C32.4205 30.3576 33 28.9587 33 27.5C33 26.0413 32.4205 24.6424 31.3891 23.6109C30.3576 22.5795 28.9587 22 27.5 22C26.0413 22 24.6424 22.5795 23.6109 23.6109C22.5795 24.6424 22 26.0413 22 27.5Z" stroke="#F38701" stroke-width="2.5" stroke-linecap="round" stroke-linejoin="round"/>
<path d="M23.8333 32.083V40.333L27.4999 37.583L31.1666 40.333V32.083" stroke="#F38701" stroke-width="2.5" stroke-linecap="round" stroke-linejoin="round"/>
<path d="M18.3333 34.8337H9.16667C8.19421 34.8337 7.26158 34.4473 6.57394 33.7597C5.88631 33.0721 5.5 32.1395 5.5 31.167V12.8337C5.5 10.817 7.15 9.16699 9.16667 9.16699H34.8333C35.8058 9.16699 36.7384 9.5533 37.4261 10.2409C38.1137 10.9286 38.5 11.8612 38.5 12.8337V31.167C38.4993 31.81 38.3296 32.4415 38.0078 32.9982C37.686 33.5549 37.2235 34.0172 36.6667 34.3387" stroke="#F38701" stroke-width="2.5" stroke-linecap="round" stroke-linejoin="round"/>
<path d="M11 16.5H33" stroke="#F38701" stroke-width="2.5" stroke-linecap="round" stroke-linejoin="round"/>
<path d="M11 22H16.5" stroke="#F38701" stroke-width="2.5" stroke-linecap="round" stroke-linejoin="round"/>
<path d="M11 27.5H14.6667" stroke="#F38701" stroke-width="2.5" stroke-linecap="round" stroke-linejoin="round"/>
</g>
<defs>
<clipPath id="clip0_470_1037">
<rect width="44" height="44" fill="white"/>
</clipPath>
</defs>
</svg>
