<svg width="1440" height="437" viewBox="0 0 1440 437" fill="none" xmlns="http://www.w3.org/2000/svg">
<path d="M643.249 128.89L511.675 172.616L427.498 277.876M643.249 128.89L730.964 199.866M643.249 128.89L779.074 7.72764M1147.61 537L1360.15 477.086M1147.61 537L995.128 415.493M1147.61 537L985.622 171.658M730.964 199.866L988.901 410.47M730.964 199.866L492.326 533.746M730.964 199.866L428.867 279.974M486 537C486 536.047 486.333 535.172 486.889 534.485M494 537C494 536.669 493.96 536.348 493.884 536.041M779.074 7.72764C779.804 8.5105 780.845 9 782 9C783.286 9 784.43 8.39317 785.162 7.45025M779.074 7.72764C778.408 7.0131 778 6.05417 778 5C778 2.79086 779.791 1 782 1C784.209 1 786 2.79086 786 5C786 5.92319 785.687 6.77333 785.162 7.45025M785.162 7.45025L980.888 165.487M1092.42 81.0532C1093.11 81.6438 1094.01 82 1095 82C1096.66 82 1098.09 80.984 1098.69 79.5386M1092.42 81.0532C1091.55 80.3194 1091 79.2239 1091 78C1091 75.7909 1092.79 74 1095 74C1097.21 74 1099 75.7909 1099 78C1099 78.5452 1098.89 79.065 1098.69 79.5386M1092.42 81.0532L987.121 165.497M1098.69 79.5386L1323.05 245.493L1440 537L1367.12 478.504M1360.15 477.086C1360.62 478.767 1362.17 480 1364 480C1365.26 480 1366.39 479.416 1367.12 478.504M1360.15 477.086C1360.05 476.74 1360 476.376 1360 476C1360 475.046 1360.33 474.17 1360.89 473.482M1367.12 478.504C1367.67 477.818 1368 476.948 1368 476C1368 473.791 1366.21 472 1364 472C1362.74 472 1361.62 472.578 1360.89 473.482M1360.89 473.482L987.108 170.519M988.116 413.959C988.545 415.705 990.121 417 992 417C993.266 417 994.396 416.411 995.128 415.493M988.116 413.959C988.04 413.652 988 413.331 988 413C988 412.04 988.338 411.159 988.901 410.47M988.116 413.959L493.884 536.041M995.128 415.493C995.674 414.809 996 413.943 996 413C996 410.791 994.209 409 992 409C990.751 409 989.635 409.573 988.901 410.47M980.888 165.487C980.333 166.174 980 167.048 980 168C980 170.209 981.791 172 984 172C984.577 172 985.126 171.878 985.622 171.658M980.888 165.487C981.621 164.58 982.743 164 984 164C985.262 164 986.387 164.584 987.121 165.497M987.121 165.497C987.671 166.183 988 167.053 988 168C988 168.955 987.666 169.831 987.108 170.519M987.108 170.519C986.712 171.007 986.203 171.399 985.622 171.658M488.997 533.127C489.318 533.044 489.654 533 490 533C490.868 533 491.671 533.276 492.326 533.746M488.997 533.127C488.155 533.344 487.42 533.829 486.889 534.485M488.997 533.127L425.984 284.878M492.326 533.746C493.09 534.292 493.653 535.101 493.884 536.041M486.889 534.485L374.113 443.512M367.846 438.54C367.316 439.218 367 440.072 367 441C367 441.346 367.044 441.682 367.127 442.002M367.846 438.54C368.578 437.603 369.719 437 371 437C373.209 437 375 438.791 375 441C375 441.951 374.668 442.825 374.113 443.512M367.846 438.54L164.153 279.462M367.127 442.002C367.571 443.726 369.137 445 371 445C372.258 445 373.38 444.419 374.113 443.512M367.127 442.002L0 537L57.7152 366.789M62.0569 360.42C61.3231 359.552 60.226 359 59 359C56.7909 359 55 360.791 55 363C55 364.76 56.1363 366.254 57.7152 366.789M62.0569 360.42C62.6453 361.117 63 362.017 63 363C63 365.209 61.2091 367 59 367C58.5506 367 58.1184 366.926 57.7152 366.789M62.0569 360.42L157.942 279.578M164.076 274.442C163.342 273.561 162.236 273 161 273C158.791 273 157 274.791 157 277C157 277.982 157.354 278.882 157.942 279.578M164.076 274.442C164.653 275.136 165 276.027 165 277C165 277.929 164.684 278.783 164.153 279.462M164.076 274.442L274.92 182.553M164.153 279.462C163.421 280.398 162.281 281 161 281C159.773 281 158.676 280.448 157.942 279.578M274.92 182.553C275.654 183.437 276.761 184 278 184C279.357 184 280.557 183.324 281.28 182.29M274.92 182.553C274.346 181.86 274 180.97 274 180C274 177.791 275.791 176 278 176C280.209 176 282 177.791 282 180C282 180.852 281.734 181.642 281.28 182.29M281.28 182.29L421.702 278.735M427.498 277.876C426.814 277.328 425.945 277 425 277C423.632 277 422.424 277.687 421.702 278.735M427.498 277.876C428.157 278.403 428.645 279.135 428.867 279.974M428.867 279.974C428.954 280.302 429 280.645 429 281C429 282.869 427.718 284.439 425.984 284.878M425.984 284.878C425.669 284.958 425.34 285 425 285C422.791 285 421 283.209 421 281C421 280.159 421.259 279.379 421.702 278.735M735 200C735 202.209 733.209 204 731 204C728.791 204 727 202.209 727 200C727 197.791 728.791 196 731 196C733.209 196 735 197.791 735 200ZM1327 244C1327 246.209 1325.21 248 1323 248C1320.79 248 1319 246.209 1319 244C1319 241.791 1320.79 240 1323 240C1325.21 240 1327 241.791 1327 244ZM648 129C648 131.209 646.209 133 644 133C641.791 133 640 131.209 640 129C640 126.791 641.791 125 644 125C646.209 125 648 126.791 648 129Z" stroke="url(#paint0_linear_378_1528)"/>
<defs>
<linearGradient id="paint0_linear_378_1528" x1="1440" y1="269" x2="-1.62919e-07" y2="269" gradientUnits="userSpaceOnUse">
<stop stop-color="white"/>
<stop offset="0.595366" stop-color="white" stop-opacity="0.2"/>
<stop offset="1" stop-color="white" stop-opacity="0"/>
</linearGradient>
</defs>
</svg>
